<?xml version="1.0" standalone="no"?>
<!DOCTYPE svg PUBLIC "-//W3C//DTD SVG 20010904//EN"
 "http://www.w3.org/TR/2001/REC-SVG-20010904/DTD/svg10.dtd">
<svg version="1.0" xmlns="http://www.w3.org/2000/svg"
 width="900.000000pt" height="900.000000pt" viewBox="0 0 900.000000 900.000000"
 preserveAspectRatio="xMidYMid meet">

<g transform="translate(0.000000,900.000000) scale(0.100000,-0.100000)"
fill="#000000" stroke="none">
<path d="M0 4500 l0 -4500 4500 0 4500 0 0 4500 0 4500 -4500 0 -4500 0 0
-4500z m7925 1303 c206 -48 371 -127 527 -254 62 -51 128 -117 128 -128 0 -3
-17 -24 -38 -46 -20 -22 -90 -102 -155 -177 -65 -76 -120 -138 -122 -138 -3 0
-26 23 -52 51 -95 102 -236 184 -368 214 -75 18 -224 23 -295 10 -127 -22
-273 -95 -376 -188 -58 -52 -144 -172 -174 -242 l-20 -46 -246 2 -246 2 6 36
c25 159 150 389 293 541 174 185 405 314 645 361 56 11 104 22 107 25 14 14
300 -4 386 -23z m-6342 -8 c115 -20 263 -68 362 -117 92 -46 245 -146 245
-160 0 -11 -246 -375 -259 -382 -5 -3 -46 17 -92 45 -165 99 -295 149 -442
170 -256 37 -440 -99 -373 -276 29 -74 101 -121 261 -170 50 -15 93 -31 98
-35 11 -9 -835 -12 -850 -3 -18 13 -34 127 -34 242 0 58 2 113 4 121 2 8 7 31
11 50 23 100 101 236 180 312 115 112 288 191 481 218 82 12 301 4 408 -15z
m4118 -22 c6 -16 79 -190 164 -388 211 -496 215 -506 215 -516 0 -11 -1257
-12 -1263 -1 -3 4 24 72 58 152 35 80 120 280 190 445 70 165 132 308 137 318
8 15 30 17 249 17 l239 0 11 -27z m-2783 -450 l-3 -458 -255 0 -255 0 -3 458
-2 457 260 0 260 0 -2 -457z m4907 -428 c109 -56 175 -164 175 -289 0 -146
-91 -269 -229 -310 -72 -21 -126 -20 -195 4 -185 63 -274 268 -193 441 79 166
279 236 442 154z m-5835 -241 c57 -38 140 -112 140 -126 0 -4 -289 -8 -642 -8
l-641 0 -46 27 c-61 35 -158 111 -165 129 -5 12 90 14 647 14 l652 0 55 -36z
m930 -49 l0 -85 -257 2 -258 3 -3 83 -3 82 261 0 260 0 0 -85z m3276 0 c19
-44 34 -81 34 -82 0 -7 -1560 -2 -1560 5 0 4 14 42 32 84 l33 78 714 -3 714
-2 33 -80z m742 0 l0 -85 -238 0 -237 0 -6 43 c-3 23 -3 61 0 85 l6 42 237 0
238 0 0 -85z m-4690 -305 c21 -67 20 -278 -1 -360 -43 -163 -148 -313 -281
-399 -151 -99 -318 -140 -566 -141 -205 -1 -358 25 -545 93 -117 42 -340 174
-428 252 l-28 25 97 118 c54 64 120 145 148 179 28 34 57 62 64 62 7 1 45 -24
85 -54 98 -75 290 -170 397 -195 226 -53 412 -29 504 66 55 56 70 131 41 202
-30 71 -78 104 -245 168 l-85 33 415 -2 414 -2 14 -45z m674 -172 l3 -223 585
-5 585 -5 0 -230 0 -230 -845 0 -845 0 -3 445 c-1 245 0 451 3 458 3 9 65 12
259 12 l256 0 2 -222z m3385 210 c5 -7 31 -65 57 -128 27 -63 61 -143 77 -178
16 -35 29 -65 29 -67 0 -2 50 -119 110 -260 61 -142 110 -261 110 -266 0 -5
-118 -9 -269 -9 l-268 0 -73 178 c-40 97 -88 213 -106 257 l-32 80 -500 3
-499 2 -56 -137 c-31 -76 -79 -192 -106 -258 l-49 -120 -267 -3 c-213 -2 -266
0 -262 10 3 7 87 204 187 438 100 234 186 435 191 448 l9 22 854 0 c671 0 856
-3 863 -12z m702 -50 c96 -198 269 -340 485 -399 68 -18 99 -21 205 -17 108 4
139 9 214 35 118 41 185 83 280 176 44 42 83 77 87 77 10 0 330 -326 330 -336
0 -6 -24 -35 -54 -66 -179 -185 -419 -312 -665 -353 -137 -23 -386 -16 -507
14 -408 101 -744 415 -868 809 -42 135 -65 122 218 122 l245 0 30 -62z"/>
</g>
</svg>
