<?xml version="1.0" encoding="utf-8"?>
<!-- Uploaded to: SVG Repo, www.svgrepo.com, Generator: SVG Repo Mixer Tools -->
<svg width="800px" height="800px" viewBox="0 0 1024 1024" class="icon"  version="1.1" xmlns="http://www.w3.org/2000/svg"><path d="M477.717333 165.098667c-73.834667 20.352-147.285333 61.568-209.728 122.965333-130.538667 128.384-172.416 304.042667-114.538666 431.594667 0.085333 0.256 0.042667 0.448 0.149333 0.704 22.592 58.176-7.36 106.432 7.872 121.386666 15.210667 14.954667 76.074667-14.954667 121.898667 7.061334 0.490667 0.256 0.832 0.170667 1.322666 0.362666 129.770667 57.557333 308.885333 16.533333 439.722667-112.149333 62.421333-61.461333 104.32-133.717333 124.992-206.314667L477.717333 165.098667z" fill="#E65100" /><path d="M548.458667 461.269333l-0.170667-0.192c-117.290667-115.328-176.32-201.301333-175.509333-255.424 0.32-19.605333 8.448-29.205333 11.946666-32.448 91.2-89.706667 215.872-70.570667 341.568 53.056a503.765333 503.765333 0 0 1 28.8 30.698667c6.549333 4.8 25.088 18.837333 46.677334 40.064 109.696 107.904 124.309333 226.090667 40.170666 324.245333-3.349333 3.776-12.586667 11.882667-31.68 12.544-53.653333 1.898667-141.696-56.149333-261.76-172.544h-0.042666z" fill="#FFA726" /><path d="M779.370667 673.152c9.365333-12.885333 17.770667-26.112 25.621333-39.488-54.037333-1.792-140.181333-59.626667-256.490667-172.352l-0.042666-0.042667-0.170667-0.192c-115.072-113.173333-173.888-197.952-175.338667-252.224-13.568 7.722667-27.008 15.978667-40.106666 25.173334 13.525333 64.32 73.237333 147.072 185.002666 257.024 137.536 133.290667 214.250667 172.288 261.525334 182.101333z" fill="#AA3304" /><path d="M252.778667 751.978667c-39.189333-38.549333-80.874667-66.901333-116.117334-81.344 4.138667 16.938667 9.685333 33.365333 16.789334 49.024 0.085333 0.256 0.042667 0.448 0.149333 0.704 22.592 58.176-7.36 106.432 7.872 121.386666 15.210667 14.954667 76.074667-14.954667 121.898667 7.061334 0.490667 0.256 0.832 0.170667 1.322666 0.362666 16.234667 7.189333 33.216 12.864 50.773334 16.981334-14.72-34.602667-43.52-75.626667-82.688-114.176z" fill="#FB8C00" /><path d="M823.317333 115.968a32.704 32.704 0 0 0-45.653333 0 31.402667 31.402667 0 0 0 0 44.885333c11.52 11.349333 5.888 44.373333-4.672 59.584-19.306667 23.594667-46.4 42.218667-59.050667 49.152a21.013333 21.013333 0 0 0-4.736 33.472c6.613333 6.506667 17.066667 8.213333 25.642667 3.498667 2.56-1.386667 48.725333-27.008 78.272-67.84h0.021333c40.362667-43.477333 22.784-110.357333 10.176-122.752z" fill="#BF360C" /></svg>