<?xml version="1.0" standalone="no"?>
<!DOCTYPE svg PUBLIC "-//W3C//DTD SVG 20010904//EN"
 "http://www.w3.org/TR/2001/REC-SVG-20010904/DTD/svg10.dtd">
<svg version="1.0" xmlns="http://www.w3.org/2000/svg"
 width="1080.000000pt" height="1080.000000pt" viewBox="0 0 1080.000000 1080.000000"
 preserveAspectRatio="xMidYMid meet">

<g transform="translate(0.000000,1080.000000) scale(0.100000,-0.100000)"
fill="#000000" stroke="none">
<path d="M5258 9371 c-59 -31 -116 -65 -126 -74 -12 -11 -72 -28 -155 -44
-155 -31 -170 -28 -215 40 -14 21 -30 36 -36 34 -21 -7 -10 -83 21 -148 50
-104 41 -100 163 -78 329 56 697 49 1048 -22 57 -11 105 -19 107 -17 22 21 61
348 43 348 -3 0 -18 -34 -34 -76 -27 -74 -60 -114 -83 -99 -24 14 -320 35
-509 35 l-203 0 17 33 c9 17 32 53 50 80 19 26 31 47 26 46 -4 0 -55 -26 -114
-58z"/>
<path d="M5220 8602 c-212 -17 -483 -120 -670 -253 l-83 -60 -41 30 c-140 106
-324 194 -495 237 -88 23 -111 24 -376 24 -281 0 -282 0 -386 -29 -240 -68
-439 -183 -615 -356 -122 -120 -203 -233 -280 -390 -104 -212 -144 -388 -144
-631 0 -171 19 -290 70 -445 67 -202 155 -354 303 -521 l83 -93 13 -100 c27
-219 84 -456 157 -654 57 -156 195 -426 287 -563 533 -797 1392 -1259 2342
-1258 755 1 1470 304 1995 846 58 60 125 134 149 164 26 32 -6 4 -75 -66 -187
-189 -292 -276 -484 -399 -147 -95 -185 -116 -355 -200 -309 -151 -693 -253
-1035 -274 -136 -8 -441 2 -555 18 -705 102 -1315 438 -1782 981 -63 72 -230
309 -278 393 -93 161 -104 182 -114 202 -5 11 -30 63 -55 117 -25 53 -47 104
-49 115 -2 10 -7 25 -10 33 -3 8 -8 26 -10 40 -8 41 -14 63 -30 106 -7 23 -13
57 -12 75 2 19 0 38 -3 43 -2 4 -6 25 -7 45 -1 20 -6 53 -10 74 l-7 38 148
-74 c195 -98 327 -147 396 -147 l54 0 39 -107 c50 -139 153 -341 238 -469 362
-542 943 -905 1577 -983 126 -16 441 -14 568 4 637 89 1200 450 1561 1000 81
123 176 310 219 430 l33 90 62 24 c34 13 106 38 160 57 108 38 199 81 264 125
23 16 44 29 47 29 11 0 124 90 129 103 3 7 8 45 12 83 8 68 9 70 75 139 177
184 303 422 362 685 31 139 33 436 5 570 -115 544 -498 955 -1029 1104 l-97
27 -303 -3 c-297 -4 -305 -5 -393 -32 -121 -37 -295 -121 -404 -196 l-89 -61
-96 65 c-52 36 -137 86 -188 110 -99 48 -274 109 -288 101 -5 -3 -12 0 -15 6
-4 6 -18 8 -31 5 -14 -4 -24 -2 -24 5 0 7 -11 8 -30 4 -19 -4 -30 -3 -30 4 0
7 -16 8 -47 4 -29 -4 -44 -3 -40 4 5 9 -193 12 -283 5z m366 -348 c44 -8 110
-23 145 -35 82 -26 232 -99 286 -138 l43 -31 -50 -73 c-183 -270 -270 -607
-248 -967 16 -274 92 -497 247 -730 69 -104 208 -251 319 -337 45 -36 82 -66
82 -68 0 -1 7 -19 15 -39 l15 -37 -47 -20 c-163 -71 -429 -148 -603 -174 -59
-10 -200 -19 -320 -22 -242 -6 -408 8 -609 53 -125 27 -371 106 -464 149 -50
23 -57 30 -51 48 13 41 37 67 118 131 263 206 455 514 527 846 20 89 23 135
23 305 0 194 -1 204 -33 330 -52 206 -125 375 -226 525 l-54 82 22 19 c40 34
230 126 312 152 175 55 359 65 551 31z m-1919 -15 c438 -49 797 -350 917 -771
83 -289 35 -619 -125 -865 -34 -52 -43 -60 -54 -49 -8 7 -53 26 -101 41 l-88
28 -25 -34 c-55 -76 -198 -205 -274 -248 -205 -116 -431 -147 -653 -91 -163
42 -346 153 -443 270 -45 54 -48 56 -81 47 -44 -11 -46 -13 -30 -32 7 -8 10
-15 7 -15 -13 0 -91 126 -128 205 -110 235 -130 524 -52 770 109 345 382 611
731 710 141 41 254 50 399 34z m3658 0 c396 -49 735 -309 876 -674 95 -244 93
-550 -4 -790 -38 -93 -115 -223 -157 -265 -14 -14 -18 -17 -10 -5 9 11 22 28
29 37 11 15 9 18 -21 26 -32 8 -35 6 -113 -74 -178 -183 -386 -270 -640 -268
-273 1 -516 122 -682 337 -24 31 -52 57 -61 57 -9 0 -59 -14 -111 -31 l-94
-32 -18 24 c-68 87 -146 288 -169 431 -19 119 -8 331 23 443 118 422 480 734
908 784 107 12 143 12 244 0z m-2925 -1723 c0 -2 -8 -10 -17 -17 -16 -13 -17
-12 -4 4 13 16 21 21 21 13z m-1644 -38 l29 -33 -32 29 c-31 28 -38 36 -30 36
2 0 16 -15 33 -32z m3645 5 c13 -16 12 -17 -3 -4 -10 7 -18 15 -18 17 0 8 8 3
21 -13z m1583 -44 c-16 -17 -51 -49 -79 -71 -30 -25 -20 -13 25 30 78 74 105
94 54 41z m-3634 18 c0 -2 -19 -21 -42 -42 l-43 -40 40 43 c36 39 45 47 45 39z
m-1484 -89 l29 -33 -35 30 c-19 17 -37 31 -39 33 -2 1 0 2 5 2 6 0 23 -15 40
-32z m3655 -5 c13 -16 12 -17 -3 -4 -10 7 -18 15 -18 17 0 8 8 3 21 -13z
m-2271 4 c0 -2 -10 -12 -22 -23 l-23 -19 19 23 c18 21 26 27 26 19z m-1329
-44 c13 -16 12 -17 -3 -4 -10 7 -18 15 -18 17 0 8 8 3 21 -13z m1279 3 c0 -2
-8 -10 -17 -17 -16 -13 -17 -12 -4 4 13 16 21 21 21 13z m3650 0 c0 -2 -8 -10
-17 -17 -16 -13 -17 -12 -4 4 13 16 21 21 21 13z m-4860 -53 c0 -7 -39 17 -46
28 -3 6 5 3 20 -6 14 -10 26 -19 26 -22z m4790 2 c0 -2 -10 -9 -22 -15 -22
-11 -22 -10 -4 4 21 17 26 19 26 11z m-4740 -31 c0 -2 -9 0 -20 6 -11 6 -20
13 -20 16 0 2 9 0 20 -6 11 -6 20 -13 20 -16z m4690 1 c0 -6 -76 -45 -87 -45
-4 1 12 12 37 25 50 27 50 27 50 20z m-3704 -30 c-11 -8 -25 -15 -30 -15 -6 1
0 7 14 15 32 19 40 18 16 0z m-866 -25 c8 -5 11 -10 5 -10 -5 0 -17 5 -25 10
-8 5 -10 10 -5 10 6 0 17 -5 25 -10z m3650 0 c8 -5 11 -10 5 -10 -5 0 -17 5
-25 10 -8 5 -10 10 -5 10 6 0 17 -5 25 -10z m774 -15 c-17 -8 -44 -16 -60 -20
-16 -3 -6 4 21 14 57 22 86 26 39 6z m-4354 -10 c19 -7 28 -14 20 -14 -8 0
-28 6 -45 14 -39 17 -21 18 25 0z m690 5 c-8 -5 -19 -10 -25 -10 -5 0 -3 5 5
10 8 5 20 10 25 10 6 0 3 -5 -5 -10z m-623 -26 c-3 -3 -12 -4 -19 -1 -8 3 -5
6 6 6 11 1 17 -2 13 -5z m3650 0 c-3 -3 -12 -4 -19 -1 -8 3 -5 6 6 6 11 1 17
-2 13 -5z m540 0 c-3 -3 -12 -4 -19 -1 -8 3 -5 6 6 6 11 1 17 -2 13 -5z
m-4150 -10 c-3 -3 -12 -4 -19 -1 -8 3 -5 6 6 6 11 1 17 -2 13 -5z m460 0 c-3
-3 -12 -4 -19 -1 -8 3 -5 6 6 6 11 1 17 -2 13 -5z m3190 0 c-3 -3 -12 -4 -19
-1 -8 3 -5 6 6 6 11 1 17 -2 13 -5z m460 0 c-3 -3 -12 -4 -19 -1 -8 3 -5 6 6
6 11 1 17 -2 13 -5z m-4054 -11 c-7 -2 -21 -2 -30 0 -10 3 -4 5 12 5 17 0 24
-2 18 -5z m360 0 c-7 -2 -19 -2 -25 0 -7 3 -2 5 12 5 14 0 19 -2 13 -5z m3290
0 c-7 -2 -19 -2 -25 0 -7 3 -2 5 12 5 14 0 19 -2 13 -5z m360 0 c-7 -2 -21 -2
-30 0 -10 3 -4 5 12 5 17 0 24 -2 18 -5z m-3920 -10 c-13 -2 -33 -2 -45 0 -13
2 -3 4 22 4 25 0 35 -2 23 -4z m200 0 c-13 -2 -33 -2 -45 0 -13 2 -3 4 22 4
25 0 35 -2 23 -4z m3445 0 c-10 -2 -28 -2 -40 0 -13 2 -5 4 17 4 22 1 32 -1
23 -4z m200 0 c-10 -2 -28 -2 -40 0 -13 2 -5 4 17 4 22 1 32 -1 23 -4z m-394
-345 c70 -14 116 -27 116 -35 0 -23 -196 -211 -304 -291 -310 -230 -665 -368
-1076 -418 -185 -23 -524 -15 -695 15 -414 74 -758 229 -1052 474 -135 113
-221 212 -201 232 1 2 80 17 173 34 94 17 195 37 225 44 l55 13 115 -52 c715
-323 1545 -310 2253 34 l79 38 98 -33 c54 -18 150 -43 214 -55z m-1302 -1232
c95 -19 179 -50 212 -81 26 -24 28 -25 97 -13 76 13 102 6 107 -28 6 -39 -20
-53 -148 -78 -69 -14 -147 -33 -175 -41 -75 -23 -235 -34 -354 -24 -376 33
-472 200 -151 264 89 18 321 18 412 1z"/>
<path d="M4003 7621 c-173 -60 -270 -232 -322 -576 -12 -77 -24 -152 -26 -166
l-4 -26 92 -7 c188 -15 457 -62 567 -101 l39 -14 15 47 c33 102 77 296 85 378
10 97 0 214 -24 270 l-16 38 -18 -31 c-28 -46 -59 -63 -113 -63 -40 0 -54 5
-84 33 -46 42 -53 90 -25 169 17 49 17 57 4 62 -29 12 -119 5 -170 -13z"/>
<path d="M6553 7625 c-102 -31 -166 -88 -212 -185 -24 -52 -26 -64 -26 -205 0
-153 14 -228 81 -451 l15 -52 62 19 c143 43 356 80 544 95 l93 7 -6 41 c-15
108 -46 288 -60 346 -18 75 -93 237 -122 263 -19 17 -20 16 -42 -39 -35 -86
-113 -119 -190 -79 -60 31 -74 101 -41 198 l20 57 -37 -1 c-20 0 -56 -6 -79
-14z"/>
<path d="M2460 2634 c-153 -41 -256 -137 -306 -284 -16 -48 -19 -87 -19 -290
0 -264 7 -300 81 -407 97 -141 325 -211 553 -169 185 33 298 129 353 299 29
87 37 376 15 494 -37 193 -149 315 -328 358 -83 19 -275 19 -349 -1z m288
-301 c71 -52 89 -126 80 -328 -6 -126 -22 -172 -72 -208 -26 -19 -44 -22 -118
-22 -102 0 -129 14 -166 86 -22 42 -23 53 -20 214 3 198 12 224 88 263 38 20
56 23 113 19 47 -3 77 -11 95 -24z"/>
<path d="M3583 2632 c-122 -44 -192 -124 -219 -252 -12 -60 -14 -141 -12 -441
l3 -367 31 -39 c82 -101 249 -71 283 52 7 26 11 163 11 383 0 416 -10 388 137
378 83 -6 99 -5 136 13 54 26 77 65 77 131 0 65 -21 101 -74 131 -37 21 -56
24 -181 26 -116 3 -149 0 -192 -15z"/>
<path d="M4435 2634 c-93 -20 -180 -60 -210 -96 -30 -36 -34 -114 -8 -158 19
-34 80 -70 117 -70 14 0 67 14 118 31 201 67 338 32 338 -87 l0 -41 -167 -6
c-133 -3 -182 -9 -233 -25 -173 -56 -250 -160 -250 -337 0 -185 91 -299 280
-351 153 -42 506 -12 601 50 74 50 74 48 74 441 0 311 -2 356 -18 405 -36 108
-112 183 -236 231 -74 30 -300 36 -406 13z m355 -773 c0 -50 -4 -93 -10 -96
-5 -3 -56 -9 -112 -12 -163 -9 -228 19 -228 95 0 44 28 77 76 92 16 4 84 9
152 9 l122 1 0 -89z"/>
<path d="M5570 2629 c-130 -27 -193 -59 -225 -113 l-25 -43 0 -449 c0 -433 1
-450 20 -482 28 -45 98 -76 158 -69 48 5 84 27 116 71 20 26 21 42 24 412 l3
384 27 7 c15 4 68 8 119 8 103 0 131 -13 168 -76 19 -32 20 -57 25 -376 6
-389 4 -380 92 -417 92 -38 195 8 219 96 7 27 9 155 7 382 -4 317 -6 346 -26
406 -42 129 -117 208 -237 251 -89 32 -332 37 -465 8z"/>
<path d="M6810 2634 c-172 -47 -268 -150 -304 -326 -19 -90 -22 -366 -6 -466
30 -181 128 -301 285 -347 106 -32 273 -27 368 10 15 6 17 1 17 -42 0 -57 -32
-127 -71 -155 -55 -41 -194 -33 -318 17 -72 30 -102 31 -157 6 -68 -31 -94
-119 -56 -190 38 -71 193 -127 377 -138 258 -14 442 105 512 332 16 55 18 104
18 595 0 508 -1 537 -19 574 -44 89 -195 137 -441 143 -112 2 -164 -1 -205
-13z m323 -289 c16 -7 17 -29 17 -270 l0 -263 -49 -21 c-67 -28 -173 -29 -218
-1 -53 32 -66 69 -71 211 -8 228 11 302 88 342 29 15 51 18 125 14 50 -3 98
-8 108 -12z"/>
<path d="M7978 2627 c-142 -49 -235 -145 -281 -291 -20 -64 -22 -90 -21 -281
0 -185 3 -218 21 -272 57 -171 182 -276 363 -304 125 -19 348 10 448 57 62 30
82 63 82 133 0 42 -5 56 -31 86 -49 56 -91 62 -202 28 -121 -36 -260 -39 -303
-7 -44 33 -66 68 -71 118 l-6 46 260 0 c248 0 261 1 303 23 25 12 55 37 67 56
20 30 23 47 23 140 0 174 -40 282 -138 374 -92 85 -185 117 -341 117 -84 0
-120 -5 -173 -23z m277 -276 c34 -19 75 -92 75 -133 l0 -28 -175 0 -175 0 0
30 c0 40 22 90 52 117 47 44 159 51 223 14z"/>
</g>
</svg>
