<?xml version="1.0" encoding="iso-8859-1"?>
<!-- Uploaded to: SVG Repo, www.svgrepo.com, Generator: SVG Repo Mixer Tools -->
<svg height="800px" width="800px" version="1.1" id="Layer_1" xmlns="http://www.w3.org/2000/svg" xmlns:xlink="http://www.w3.org/1999/xlink" 
	 viewBox="0 0 506 506" xml:space="preserve">
<circle style="fill:#84DBFF;" cx="253" cy="253" r="253"/>
<path style="fill:#FF7058;" d="M408.7,95.3c-2.4,0.3-58.7,8.4-74.4,24.1c-16.1,16.1-17.5,40.9-3,55.4c6.5,6.5,15.3,10,24.9,10
	c0.8,0,1.5,0,2.3-0.1c10.4-0.6,20.4-5.2,28.2-13c15.7-15.7,23.8-72,24.1-74.4l0.3-2.4L408.7,95.3z"/>
<g>
	<path style="fill:#324A5E;" d="M327,178.2c-7.4-7.2-17.7-10.9-28.9-10.4c-13.7,0.6-27.5,7.6-36.9,18.6l-8.6,10v24.7
		c0,17.8,14.5,32.2,32.2,32.2h24.5l11.6-9.9c10.8-9.2,17.2-22.1,17.6-35.6C339,196.4,334.8,185.8,327,178.2z"/>
	<path style="fill:#324A5E;" d="M129.7,344.1l-1.5-2l-27,31.6c-8.3,9.7-8.4,23.2-0.3,31.3c4,4,9.3,6,14.9,6c5.7,0,11.5-2.1,16.4-6.3
		l31.6-27l-2-1.5C149.6,367.1,138.8,356.3,129.7,344.1z"/>
</g>
<path style="fill:#FFD05B;" d="M403.9,261.8c-6.2-7.9-15.5-12.4-25.5-12.4h-93.5c-15.6,0-28.3-12.7-28.3-28.3v-93.5
	c0-10-4.5-19.3-12.4-25.5c-7.7-6-17.4-8.2-26.8-6c-75.6,18.1-127,87.7-122.1,165.5c5,80.1,69.1,144.2,149.2,149.2
	c3.4,0.2,6.8,0.3,10.1,0.3c73.7,0,138.1-50.1,155.4-122.4C412.2,279.3,410,269.5,403.9,261.8z"/>
<circle style="fill:#324A5E;" cx="200.4" cy="160" r="22.9"/>
<circle style="fill:#4CDBC4;" cx="158.7" cy="230.2" r="22.9"/>
<circle style="fill:#2FB5A0;" cx="167.7" cy="308.7" r="22.9"/>
<path style="fill:#F1543F;" d="M231.7,242.9c-18.3,0-33.2,14.9-33.2,33.2c0,18.3,14.9,33.2,33.2,33.2s33.2-14.9,33.2-33.2
	S250,242.9,231.7,242.9z"/>
<circle style="fill:#CED5E0;" cx="223.3" cy="362" r="22.9"/>
<circle style="fill:#FFFFFF;" cx="300.1" cy="348" r="22.9"/>
<circle style="fill:#FF7058;" cx="350.1" cy="295.1" r="22.9"/>
</svg>